<svg xmlns="http://www.w3.org/2000/svg" version="1.1" xmlns:xlink="http://www.w3.org/1999/xlink" xmlns:svgjs="http://svgjs.com/svgjs" width="1920" height="1080" preserveAspectRatio="none" viewBox="0 0 1920 1080"><g mask="url(&quot;#SvgjsMask1051&quot;)" fill="none"><rect width="1920" height="1080" x="0" y="0" fill="rgba(35, 47, 62, 1)"></rect><path d="M1920 0L1529.72 0L1920 348.87z" fill="rgba(255, 255, 255, .1)"></path><path d="M1529.72 0L1920 348.87L1920 379.24L1323.92 0z" fill="rgba(255, 255, 255, .075)"></path><path d="M1323.92 0L1920 379.24L1920 555.84L885.98 0z" fill="rgba(255, 255, 255, .05)"></path><path d="M885.98 0L1920 555.84L1920 563.46L840.36 0z" fill="rgba(255, 255, 255, .025)"></path><path d="M0 1080L706.22 1080L0 648.49z" fill="rgba(0, 0, 0, .1)"></path><path d="M0 648.49L706.22 1080L776.78 1080L0 382.98z" fill="rgba(0, 0, 0, .075)"></path><path d="M0 382.98L776.78 1080L1252.97 1080L0 165.51000000000002z" fill="rgba(0, 0, 0, .05)"></path><path d="M0 165.51L1252.97 1080L1637.27 1080L0 114.35999999999999z" fill="rgba(0, 0, 0, .025)"></path></g><defs><mask id="SvgjsMask1051"><rect width="1920" height="1080" fill="#ffffff"></rect></mask></defs></svg>